HIERARCHY
ROOT Hips
{
	OFFSET 0.00000 0.00000 0.00000
	CHANNELS 6 Xposition Yposition Zposition Yrotation Zrotation Xrotation 
	JOINT Lumbar
	{
		OFFSET 0 0 0
		CHANNELS 3 Zrotation Xrotation Yrotation
		JOINT Neck
		{
			OFFSET 0.00 0.2701 0.00
			CHANNELS 3 Zrotation Xrotation Yrotation
			End Site
			{
				OFFSET 0.00 0.1379 0.00
			}
		}
		JOINT RightShoulder
		{
			OFFSET 0.0119 0.2289 0.1181
			CHANNELS 3 Zrotation Xrotation Yrotation
			JOINT RightElbow
			{
				OFFSET 0.00 -0.1475 0.00
				CHANNELS 2 Zrotation Yrotation
				JOINT RightWrist
				{
					OFFSET 0.00 -0.1605 0.00
					CHANNELS 2 Zrotation Xrotation
					End Site
					{
						OFFSET 0.0040 -0.1068 0.0006
					}
				}
			}
		}
		JOINT LeftShoulder
		{
			OFFSET 0.0119 0.2289 -0.1181
			CHANNELS 3 Zrotation Xrotation Yrotation
			JOINT LeftElbow
			{
				OFFSET 0.00 -0.1475 0.00
				CHANNELS 2 Zrotation Yrotation
				JOINT LeftWrist
				{
					OFFSET 0.00 -0.1605 0.00
					CHANNELS 2 Zrotation Xrotation
					End Site
					{
						OFFSET 0.0040 -0.1068 -0.0006
					}
				}
			}
		}
	}
	JOINT RightHip
	{
		OFFSET 0.0316 -0.0424 0.0458
		CHANNELS 3 Zrotation Xrotation Yrotation
		JOINT RightKnee
		{
			OFFSET 0.00 -0.2438 0.00
			CHANNELS 1 Zrotation
			JOINT RightAnkle
			{
				OFFSET 0.00 -0.2449 0.00
				CHANNELS 3 Zrotation Xrotation Yrotation
				End Site
				{
					OFFSET 0.1237 -0.0542 0.0051
				}
			}
		}
	}
	JOINT LeftHip
	{
		OFFSET 0.0316 -0.0424 -0.0458
		CHANNELS 3 Zrotation Xrotation Yrotation
		JOINT LeftKnee
		{
			OFFSET 0.00 -0.2438 0.00
			CHANNELS 1 Zrotation
			JOINT LeftAnkle
			{
				OFFSET 0.00 -0.2449 0.00
				CHANNELS 3 Zrotation Xrotation Yrotation
				End Site
				{
					OFFSET 0.1237 -0.0542 -0.0051
				}
			}
		}
	}
}
MOTION
Frames: 14
Frame Time: 0.02
-0.00055 -3e-05 -0.00079 -173.48402 -27.32623 2.80459 43.67912 -1.10351 -5.3067 -14.79944 2.72257 -1.11908 -20.58225 -4.96428 -17.68478 26.59612 96.66421 8.92311 1.98972 -18.61356 -0.13923 33.09153 21.65798 -167.82357 35.42376 -13.46438 28.76871 -1.96872 -5.54275 -20.31102 -6.72542 -3.84249 -4.08357 33.82497 5.88629 6.41428 -24.27432 -6.79922 1.08215 2.78165
-0.00049 -3e-05 -0.00062 -173.32052 -27.35736 2.76043 43.60042 -1.11379 -5.39726 -14.73427 2.7738 -1.12031 -20.45794 -4.95209 -17.96102 26.43424 96.58443 8.80028 1.97747 -18.86106 1.00865 30.33088 22.90677 -161.6858 33.58915 -12.32366 28.8037 -2.03457 -6.12408 -20.32388 -6.68828 -3.79728 -4.05993 33.934 5.91272 6.39612 -24.30426 -6.80048 1.07361 2.77798
-0.00042 -2e-05 -0.00044 -173.15785 -27.38838 2.7162 43.52207 -1.12394 -5.48726 -14.66968 2.82518 -1.12153 -20.33432 -4.94004 -18.23622 26.27376 96.50493 8.67802 1.96526 -19.11111 2.15608 27.57551 24.15956 -155.56693 31.76051 -11.18638 28.83852 -2.10012 -6.70376 -20.33666 -6.65122 -3.75215 -4.03633 34.04257 5.93912 6.37753 -24.33412 -6.80171 1.06518 2.77436
-0.00036 -2e-05 -0.00027 -172.99488 -27.41945 2.67216 43.44364 -1.13418 -5.5775 -14.60474 2.8763 -1.12276 -20.21041 -4.92794 -18.51145 26.11235 96.4252 8.55558 1.953 -19.3582 3.3008 24.8227 25.40557 -149.44786 29.93161 -10.04912 28.87344 -2.16576 -7.28331 -20.34948 -6.61419 -3.70707 -4.01276 34.15131 5.96546 6.35933 -24.36397 -6.80296 1.05668 2.7707
-0.00029 -1e-05 -9e-05 -172.83102 -27.45055 2.62825 43.36478 -1.14456 -5.66838 -14.53916 2.92713 -1.12398 -20.08575 -4.91554 -18.78812 25.94967 96.34575 8.43256 1.94083 -19.60199 4.44513 22.06623 26.64522 -143.31048 28.09661 -8.90858 28.90845 -2.23171 -7.86448 -20.36239 -6.57707 -3.66191 -3.98915 34.26037 5.99187 6.34179 -24.39389 -6.80426 1.04802 2.76697
-0.00023 -0 8e-05 -172.6709 -27.48132 2.58334 43.28751 -1.15421 -5.7565 -14.47673 2.97967 -1.12523 -19.96438 -4.90416 -19.06042 25.79409 96.26648 8.31191 1.9286 -19.86546 5.59918 19.31356 27.92579 -137.23119 26.28143 -7.77829 28.94279 -2.29641 -8.441 -20.3749 -6.54017 -3.61684 -3.96559 34.36782 6.01826 6.32104 -24.42359 -6.80532 1.04008 2.76358
-0.00016 -0 0.00025 -172.50323 -27.513 2.54056 43.2072 -1.16536 -5.85015 -14.4078 3.02875 -1.12641 -19.83635 -4.89106 -19.3403 25.62317 96.18543 8.18651 1.91619 -20.08774 6.73152 16.55532 29.12122 -131.04056 24.42853 -6.62836 28.97878 -2.3636 -9.02613 -20.38821 -6.50284 -3.57167 -3.94196 34.47882 6.04454 6.30661 -24.45374 -6.80685 1.03072 2.75953
-9e-05 1e-05 0.00043 -172.34293 -27.54332 2.49567 43.12952 -1.17508 -5.93858 -14.34529 3.08093 -1.12769 -19.71477 -4.87896 -19.61482 25.46865 96.10875 8.06571 1.90454 -20.35037 7.8855 13.80398 30.39771 -124.95467 22.61009 -5.49701 29.0126 -2.4284 -9.60354 -20.40077 -6.46595 -3.52654 -3.91837 34.58578 6.07115 6.28666 -24.48341 -6.80798 1.02263 2.75606
-5e-05 2e-05 0.0006 -172.19002 -27.57407 2.44872 43.05577 -1.18324 -6.02108 -14.28898 3.13734 -1.12893 -19.59988 -4.8704 -19.87643 25.3253 96.02659 7.94964 1.89143 -20.65365 9.06051 11.05235 31.7651 -118.98606 20.83437 -4.38604 29.04633 -2.49066 -10.17091 -20.41244 -6.42943 -3.48166 -3.89492 34.69088 6.09726 6.25865 -24.51279 -6.80848 1.01627 2.7534
8e-05 1e-05 0.00078 -171.98972 -27.60863 2.41517 42.96156 -1.2009 -6.13906 -14.19204 3.17075 -1.1299 -19.44289 -4.84843 -20.19322 25.091 95.94343 7.80369 1.87954 -20.69705 10.09835 8.27602 32.58506 -112.31014 18.81459 -3.15074 29.08828 -2.56871 -10.79426 -20.42933 -6.39029 -3.43595 -3.87093 34.81591 6.12353 6.27306 -24.5447 -6.8122 1.00048 2.74637
4e-05 4e-05 0.00095 -171.89248 -27.63112 2.3524 42.90914 -1.19818 -6.18131 -14.18396 3.25179 -1.13176 -19.37699 -4.85032 -20.40579 25.06556 95.88315 7.72247 1.86966 -21.30498 11.43549 5.56919 34.57465 -107.14779 17.30871 -2.18237 29.108 -2.6127 -11.30056 -20.43514 -6.35696 -3.39158 -3.84792 34.893 6.15122 6.20055 -24.5707 -6.80939 1.00425 2.74841
-0.00045 0.00019 0.00109 -172.05585 -27.65665 2.21703 42.98576 -1.14198 -6.02248 -14.39525 3.47141 -1.13356 -19.54303 -4.95634 -20.2245 25.48509 95.701 7.80392 1.82469 -23.33456 13.53049 2.89391 39.68204 -105.98263 17.21721 -1.91201 29.1103 -2.56907 -11.47272 -20.41083 -6.33743 -3.35442 -3.82905 34.88973 6.1671 5.8642 -24.58523 -6.78633 1.06543 2.77709
-0.00111 0.00038 0.00122 -172.32696 -27.66559 2.05134 43.10312 -1.06507 -5.78741 -14.6995 3.73686 -1.13666 -19.80249 -5.0802 -19.95507 26.1417 95.56575 7.95124 1.78707 -25.94711 15.9434 0.30659 45.97618 -106.35168 17.62868 -1.9136 29.08504 -2.49057 -11.52873 -20.37539 -6.32413 -3.31801 -3.81093 34.83165 6.18641 5.4441 -24.59304 -6.75715 1.14584 2.81471
-0.0017 0.00055 0.00135 -172.56309 -27.65564 1.89406 43.19062 -0.99576 -5.58147 -14.97821 3.97689 -1.14086 -20.03271 -5.16933 -19.80091 26.76891 95.54279 8.0806 1.77545 -28.38586 18.24525 -2.20272 51.79348 -106.13918 17.82287 -1.81643 29.04033 -2.42372 -11.64764 -20.34481 -6.30941 -3.2789 -3.79151 34.76163 6.21562 5.08037 -24.60067 -6.73228 1.21468 2.84693
